<?xml version="1.0"?>
<svg xmlns="http://www.w3.org/2000/svg" xmlns:xlink="http://www.w3.org/1999/xlink" version="1.1" id="Capa_1" x="0px" y="0px" viewBox="0 0 390 390" style="enable-background:new 0 0 390 390;" xml:space="preserve" width="512px" height="512px"><g><g id="XMLID_30_">
	<path id="XMLID_794_" d="M365,85h-55V30c0-8.284-6.716-15-15-15H95c-8.284,0-15,6.716-15,15v55H25C11.193,85,0,96.193,0,110v240   c0,13.807,11.193,25,25,25h340c13.807,0,25-11.193,25-25V110C390,96.193,378.807,85,365,85z M30,345V220.59L49.895,240H85v15h30   v-15h160v15h30v-15h32.898L360,219.44V345H30z M360,115v63.467L326.102,210H305v-15h-30v15H115v-15H85v15H62.105L30,178.678V115   H360z M110,45h170v40H110V45z" data-original="#000000" class="active-path" data-old_color="#eceff1" fill="#eceff1"/>
</g></g> </svg>
