<svg enable-background="new 0 0 390 390" height="512" viewBox="0 0 390 390" width="512" xmlns="http://www.w3.org/2000/svg"><path d="m365 85h-55v-55c0-8.284-6.716-15-15-15h-200c-8.284 0-15 6.716-15 15v55h-55c-13.807 0-25 11.193-25 25v240c0 13.807 11.193 25 25 25h340c13.807 0 25-11.193 25-25v-240c0-13.807-11.193-25-25-25zm-335 260v-124.41l19.895 19.41h35.105v15h30v-15h160v15h30v-15h32.898l22.102-20.56v125.56zm330-230v63.467l-33.898 31.533h-21.102v-15h-30v15h-160v-15h-30v15h-22.895l-32.105-31.322v-63.678zm-250-70h170v40h-170z" fill="#eceff1"/></svg>