<svg enable-background="new 0 0 460 460" height="512" viewBox="0 0 460 460" width="512" xmlns="http://www.w3.org/2000/svg"><g fill="#eceff1"><path d="m230 0c-90.981 0-165 74.019-165 165v130c0 90.981 74.019 165 165 165s165-74.019 165-165v-130c0-90.981-74.019-165-165-165zm135 295c0 74.44-60.56 135-135 135s-135-60.56-135-135v-130c0-74.439 60.561-135 135-135s135 60.561 135 135z"/><path d="m155 165c0-15.219 4.553-29.879 13.168-42.396l-24.713-17.008c-12.073 17.543-18.455 38.084-18.455 59.404v66h30z"/><path d="m300.012 86.803c-7.042-6.31-14.888-11.64-23.32-15.841-14.599-7.274-30.308-10.962-46.692-10.962-22.382 0-43.76 6.975-61.825 20.171l17.696 24.225c12.893-9.418 28.152-14.396 44.129-14.396 11.699 0 22.907 2.629 33.313 7.813 6.027 3.003 11.639 6.816 16.679 11.332 15.893 14.243 25.008 34.602 25.008 55.855v35h30v-35c0-29.769-12.752-58.271-34.988-78.197z"/><path d="m269.006 358.822c-11.753 7.277-25.284 11.137-39.145 11.175-41.292-.077-74.861-33.689-74.861-74.997v-35h-30v35c0 57.782 46.917 104.809 104.655 104.996v.004c.049 0 .097-.002.145-.002.067 0 .133.002.199.002v-.006c19.398-.063 38.339-5.474 54.799-15.667z"/><path d="m305 295c0 8.271-6.728 15-15 15s-15-6.729-15-15v-130c0-24.813-20.186-45-45-45-24.813 0-45 20.187-45 45v130h30v-130c0-8.271 6.729-15 15-15s15 6.729 15 15v130c0 24.813 20.186 45 45 45s45-20.187 45-45v-65h-30z"/></g></svg>