<svg enable-background="new 0 0 446.905 446.905" height="512" viewBox="0 0 446.905 446.905" width="512" xmlns="http://www.w3.org/2000/svg"><g fill="#eceff1"><path d="m276.343 26.808c-20.097-22.157-40.462-26.808-54.007-26.808-22.513 0-44.23 12.259-61.15 34.518-15.699 20.653-25.609 47.83-27.905 76.525-2.305 28.811 2.708 47.305 9.647 72.902 6.195 22.855 13.906 51.3 20.437 100.276l1.735 13.018h130.843l2.842-11.36c.463-1.851 11.376-45.945 14.547-99.382 4.395-74.058-8.051-127.785-36.989-159.689zm7.041 157.912c-2.108 35.541-7.79 66.567-11.143 82.519h-80.968c-6.366-43.096-13.531-69.525-19.391-91.144-6.602-24.352-10.587-39.05-8.698-62.66 1.844-23.044 9.616-44.623 21.884-60.762 11.115-14.621 24.35-22.673 37.268-22.673 10.729 0 21.721 5.866 31.786 16.963 10.922 12.042 18.993 29.084 23.989 50.652 5.516 23.813 7.29 53.119 5.273 87.105z"/><path d="m165.318 341.921c.028 27.289 5.748 52.615 16.105 71.312 12.027 21.714 29.6 33.672 49.478 33.672 37.961 0 64.517-43.171 64.582-104.984l.016-15.016h-130.196zm99.513 14.984c-1.593 18.096-6.065 33.728-12.981 44.969-6.135 9.974-13.184 15.031-20.949 15.031-10.867 0-18.633-9.902-23.234-18.208-6.01-10.851-10.059-25.583-11.624-41.792z"/></g></svg>