<?xml version="1.0"?>
<svg xmlns="http://www.w3.org/2000/svg" xmlns:xlink="http://www.w3.org/1999/xlink" version="1.1" id="Capa_1" x="0px" y="0px" viewBox="0 0 446.905 446.905" style="enable-background:new 0 0 446.905 446.905;" xml:space="preserve" width="512px" height="512px" class=""><g><g id="XMLID_105_">
	<path id="XMLID_108_" d="M276.343,26.808C256.246,4.651,235.881,0,222.336,0c-22.513,0-44.23,12.259-61.15,34.518   c-15.699,20.653-25.609,47.83-27.905,76.525c-2.305,28.811,2.708,47.305,9.647,72.902c6.195,22.855,13.906,51.3,20.437,100.276   l1.735,13.018h130.843l2.842-11.36c0.463-1.851,11.376-45.945,14.547-99.382C317.727,112.439,305.281,58.712,276.343,26.808z    M283.384,184.72c-2.108,35.541-7.79,66.567-11.143,82.519h-80.968c-6.366-43.096-13.531-69.525-19.391-91.144   c-6.602-24.352-10.587-39.05-8.698-62.66c1.844-23.044,9.616-44.623,21.884-60.762C196.183,38.052,209.418,30,222.336,30   c10.729,0,21.721,5.866,31.786,16.963c10.922,12.042,18.993,29.084,23.989,50.652C283.627,121.428,285.401,150.734,283.384,184.72z   " data-original="#000000" class="active-path" data-old_color="#eceff1" fill="#eceff1"/>
	<path id="XMLID_138_" d="M165.318,341.921c0.028,27.289,5.748,52.615,16.105,71.312c12.027,21.714,29.6,33.672,49.478,33.672   c37.961,0,64.517-43.171,64.582-104.984l0.016-15.016H165.303L165.318,341.921z M264.831,356.905   c-1.593,18.096-6.065,33.728-12.981,44.969c-6.135,9.974-13.184,15.031-20.949,15.031c-10.867,0-18.633-9.902-23.234-18.208   c-6.01-10.851-10.059-25.583-11.624-41.792H264.831z" data-original="#000000" class="active-path" data-old_color="#eceff1" fill="#eceff1"/>
</g></g> </svg>
