<svg enable-background="new 0 0 440.465 440.465" height="512" viewBox="0 0 440.465 440.465" width="512" xmlns="http://www.w3.org/2000/svg"><g fill="#eceff1"><path d="m293.404 80.477c-1.422-4.093-4.545-7.372-8.564-8.991-1.803-.726-3.707-1.087-5.607-1.087-2.337 0-4.667.546-6.798 1.63l-52.202 26.543-52.201-26.543c-2.131-1.083-4.463-1.629-6.8-1.629-1.9 0-3.803.361-5.605 1.087-4.019 1.62-7.142 4.898-8.563 8.991l-48.605 139.921h243.548zm-123.644 26.086 36.875 18.75 13.597 6.913 13.598-6.913 36.876-18.75 29.121 83.836h-159.188z"/><path d="m437.016 256.01c-2.851-3.439-7.084-5.43-11.551-5.43h-410.465c-4.466 0-8.701 1.99-11.55 5.43-2.85 3.439-4.019 7.969-3.189 12.358 12.224 64.631 92.4 101.698 219.971 101.698 127.57 0 207.746-37.067 219.971-101.698.83-4.388-.338-8.919-3.187-12.358zm-76.133 60.213c-33.738 15.599-82.375 23.843-140.65 23.843-58.276 0-106.912-8.245-140.651-23.843-20.702-9.571-35.181-21.513-43.263-35.643h367.828c-8.083 14.129-22.562 26.072-43.264 35.643z"/></g></svg>