<?xml version="1.0"?>
<svg xmlns="http://www.w3.org/2000/svg" xmlns:xlink="http://www.w3.org/1999/xlink" version="1.1" id="Capa_1" x="0px" y="0px" viewBox="0 0 440.465 440.465" style="enable-background:new 0 0 440.465 440.465;" xml:space="preserve" width="512px" height="512px"><g><g id="XMLID_39_">
	<path id="XMLID_41_" d="M293.404,80.477c-1.422-4.093-4.545-7.372-8.564-8.991c-1.803-0.726-3.707-1.087-5.607-1.087   c-2.337,0-4.667,0.546-6.798,1.63l-52.202,26.543l-52.201-26.543c-2.131-1.083-4.463-1.629-6.8-1.629   c-1.9,0-3.803,0.361-5.605,1.087c-4.019,1.62-7.142,4.898-8.563,8.991L98.459,220.399h243.548L293.404,80.477z M169.76,106.563   l36.875,18.75l13.597,6.913l13.598-6.913l36.876-18.75l29.121,83.836H140.639L169.76,106.563z" data-original="#000000" class="active-path" data-old_color="#eceff1" fill="#eceff1"/>
	<path id="XMLID_40_" d="M437.016,256.01c-2.851-3.439-7.084-5.43-11.551-5.43H15c-4.466,0-8.701,1.99-11.55,5.43   c-2.85,3.439-4.019,7.969-3.189,12.358c12.224,64.631,92.4,101.698,219.971,101.698c127.57,0,207.746-37.067,219.971-101.698   C441.033,263.98,439.865,259.449,437.016,256.01z M360.883,316.223c-33.738,15.599-82.375,23.843-140.65,23.843   c-58.276,0-106.912-8.245-140.651-23.843c-20.702-9.571-35.181-21.513-43.263-35.643h367.828   C396.064,294.709,381.585,306.652,360.883,316.223z" data-original="#000000" class="active-path" data-old_color="#eceff1" fill="#eceff1"/>
</g></g> </svg>
