<svg enable-background="new 0 0 405 405" height="512" viewBox="0 0 405 405" width="512" xmlns="http://www.w3.org/2000/svg"><g fill="#eceff1"><path d="m360 97.5h-160v-40c0-8.284-6.716-15-15-15h-100.001c-3.978 0-7.793 1.58-10.606 4.394-2.813 2.813-4.394 6.628-4.394 10.606v47.583c-12.058 8.073-19.999 21.816-19.999 37.417s7.941 29.344 20 37.417v47.583c0 8.284 6.716 15 15 15h100c8.284 0 15-6.716 15-15v-40h160c24.852 0 45-20.148 45-45s-20.148-45-45-45zm0 60h-160v-30h160c8.271 0 15 6.729 15 15s-6.729 15-15 15zm-260 55-.001-140h70.001v140z"/><path d="m240 302.5v-15c0-8.284-6.716-15-15-15h-180c-8.284 0-15 6.716-15 15v15c-16.568 0-30 13.432-30 30s13.432 30 30 30h210c16.568 0 30-13.432 30-30s-13.432-30-30-30zm-180 0h150l.038 30-150.038-.001z"/></g></svg>