<svg enable-background="new 0 0 489.6 489.6" height="512" viewBox="0 0 489.6 489.6" width="512" xmlns="http://www.w3.org/2000/svg"><g fill="#eceff1"><path d="m244.8 489.6c135 0 244.8-109.8 244.8-244.8s-109.8-244.8-244.8-244.8-244.8 109.8-244.8 244.8 109.8 244.8 244.8 244.8zm0-469.8c124.1 0 225 100.9 225 225s-100.9 225-225 225-225-100.9-225-225 100.9-225 225-225z"/><path d="m265.5 326.1c1.9 1.9 4.5 2.9 7 2.9s5.1-1 7-2.9c3.9-3.9 3.9-10.1 0-14l-67.3-67.3 67.3-67.3c3.9-3.9 3.9-10.1 0-14s-10.1-3.9-14 0l-74.3 74.3c-3.9 3.9-3.9 10.1 0 14z"/></g></svg>