<svg enable-background="new 0 0 54 54" height="512" viewBox="0 0 54 54" width="512" xmlns="http://www.w3.org/2000/svg"><g fill="#edb67e"><path d="m27 0c-14.888 0-27 12.112-27 27s12.112 27 27 27 27-12.112 27-27-12.112-27-27-27zm0 52c-13.785 0-25-11.215-25-25s11.215-25 25-25 25 11.215 25 25-11.215 25-25 25z"/><path d="m23.001 14.293c-.391-.391-1.023-.391-1.414 0s-.391 1.023 0 1.414l11.293 11.293-11.293 11.293c-.391.391-.391 1.023 0 1.414.195.195.451.293.707.293s.512-.098.707-.293l11.498-11.498c.667-.667.667-1.751 0-2.418z"/></g></svg>