<svg enable-background="new 0 0 360 360" height="512" viewBox="0 0 360 360" width="512" xmlns="http://www.w3.org/2000/svg"><g fill="#eceff1"><path d="m180 0c-82.843 0-150 67.157-150 150v109.667h.016c.337 13.559 7.045 22.475 19.879 26.753l55.105 18.58v30c0 13.75 11.25 25 25 25h100c13.75 0 25-11.25 25-25v-30l55.051-18.668c12.834-4.278 19.597-13.106 19.934-26.665h.015v-109.667c0-82.843-67.157-150-150-150zm120 258.063-54.635 18.526-20.365 6.906v21.505 25h-90v-25-21.544l-20.415-6.884-54.585-18.404v-108.168c0-32.053 12.482-62.188 35.147-84.853 22.666-22.665 52.8-35.147 84.853-35.147s62.188 12.482 84.853 35.147c22.665 22.666 35.147 52.8 35.147 84.853z"/><path d="m160 281c0 11.046 8.954 20 20 20s20-8.954 20-20-20-40-20-40-20 28.954-20 40z"/><path d="m125 161c-24.854 0-45 20.146-45 45s20.146 45 45 45 45-20.146 45-45-20.146-45-45-45zm0 60c-8.271 0-15-6.729-15-15s6.729-15 15-15 15 6.729 15 15-6.729 15-15 15z"/><path d="m190 206c0 24.854 20.146 45 45 45s45-20.146 45-45-20.147-45-45-45-45 20.146-45 45zm60 0c0 8.271-6.729 15-15 15s-15-6.729-15-15 6.729-15 15-15 15 6.729 15 15z"/></g></svg>