<svg enable-background="new 0 0 445.794 445.794" height="512" viewBox="0 0 445.794 445.794" width="512" xmlns="http://www.w3.org/2000/svg"><path d="m444.677 209.51c-5.894-20.992-16.133-40.712-30.434-58.612-13.665-17.104-30.692-32.106-50.608-44.592-19.629-12.306-41.578-21.855-65.237-28.384-24.106-6.652-49.508-10.025-75.501-10.025-26.946 0-53.232 3.715-78.13 11.042-23.705 6.976-45.735 17.085-65.478 30.048-39.491 25.927-67.253 61.627-78.172 100.523-2.538 9.04-.697 18.747 4.975 26.23 5.671 7.483 14.519 11.879 23.909 11.879h65.035l-37.282 57.873c-2.601 4.037-3.983 8.737-3.983 13.539v33.866c0 13.807 11.193 25 25 25h288.255c13.807 0 25-11.193 25-25v-33.866c0-4.802-1.383-9.502-3.983-13.539l-37.282-57.873h65.035c9.39 0 18.237-4.396 23.909-11.879 5.668-7.483 7.51-17.19 4.972-26.23zm-221.78-55.718c-99.5 0-120 29.547-120 29.547v34.28h-72.897c17.737-63.182 93.307-119.722 192.897-119.722 95.102 0 173.408 50.3 192.896 119.722h-71.918v-34.28s-21.478-29.547-120.978-29.547zm139.127 194.105h-88.158c14.774-13.698 24.03-33.264 24.03-55 0-41.421-33.578-75-75-75-41.421 0-75 33.579-75 75 0 21.736 9.256 41.302 24.03 55h-88.157v-27.395l85.599-132.876c13.656-2.249 31.186-3.834 53.529-3.834 22.229 0 39.772 1.571 53.514 3.812l85.614 132.898v27.395zm-184.127-55c0-24.813 20.187-45 45-45s45 20.187 45 45-20.187 45-45 45-45-20.187-45-45z" fill="#04030a"/></svg>