<svg enable-background="new 0 0 440 440" height="512" viewBox="0 0 440 440" width="512" xmlns="http://www.w3.org/2000/svg"><g fill="#eceff1"><path d="m410.872 225c2.061 5.822 7.6 10 14.128 10 8.284 0 15-6.716 15-15v-80c0-8.284-6.716-15-15-15-6.528 0-12.066 4.178-14.128 10h-50.872v-95c0-13.807-11.193-25-25-25h-230c-13.807 0-25 11.193-25 25v95h-50.872c-2.061-5.822-7.6-10-14.128-10-8.284 0-15 6.716-15 15v80c0 8.284 6.716 15 15 15 6.528 0 12.066-4.178 14.128-10h20.872v110c-.04 0-.153 0-.322 0-1.227 0-5.385.003-5.677.009-24.391.532-44.001 20.472-44.001 44.991 0 24.853 20.148 45 45 45h350c24.852 0 45-20.147 45-45 0-24.747-19.978-44.83-44.686-44.998-.105-.002-5.21-.002-5.314-.002v-110zm-300.872-90v-90h220v90zm-80 60v-30h380v30zm365.16 170c8.188.086 14.84 6.803 14.84 15 0 8.272-6.728 15-15 15h-350c-8.271 0-15-6.728-15-15 0-8.049 6.502-14.748 14.484-14.994.957-.004 35.516.094 35.516.094v-140.1h80.415c16.452 13.235 37.28 21 59.585 21s43.133-7.765 59.585-21h80.415v140z"/><circle cx="310" cy="290" r="15"/><circle cx="250" cy="290" r="15"/><circle cx="190" cy="290" r="15"/><circle cx="130" cy="290" r="15"/><circle cx="310" cy="350" r="15"/><circle cx="130" cy="350" r="15"/><path d="m250 335h-60c-8.284 0-15 6.716-15 15s6.716 15 15 15h60c8.284 0 15-6.716 15-15s-6.716-15-15-15z"/><path d="m140 75h160v30h-160z"/></g></svg>